<svg width="800" height="800" viewBox="0 0 800 800" fill="none" xmlns="http://www.w3.org/2000/svg">
<g clip-path="url(#clip0_4_8)">
<path fill-rule="evenodd" clip-rule="evenodd" d="M128.917 241.585C137 233.502 150.106 233.502 158.19 241.585L248.52 331.916C256.604 339.999 256.604 353.105 248.52 361.189C240.437 369.273 227.331 369.273 219.247 361.189L164.253 306.194L164.253 652.611C164.253 664.043 154.985 673.311 143.553 673.311C132.121 673.311 122.854 664.043 122.854 652.611L122.854 306.194L67.8594 361.189C59.7759 369.273 46.6699 369.273 38.5863 361.189C30.5028 353.105 30.5028 339.999 38.5863 331.916L128.917 241.585Z" fill="black"/>
<path fill-rule="evenodd" clip-rule="evenodd" d="M555.614 640.334C563.698 648.417 563.698 661.523 555.614 669.607L465.284 759.937C457.2 768.021 444.094 768.021 436.011 759.937C427.927 751.854 427.927 738.748 436.011 730.664L491.006 675.67H144.588C133.157 675.67 123.889 666.402 123.889 654.97C123.889 643.538 133.157 634.271 144.588 634.271H491.006L436.011 579.276C427.927 571.193 427.927 558.087 436.011 550.003C444.094 541.92 457.2 541.92 465.284 550.003L555.614 640.334Z" fill="black"/>
<path fill-rule="evenodd" clip-rule="evenodd" d="M376.981 441.48C376.981 430.048 367.714 420.781 356.282 420.781L228.535 420.781C217.103 420.781 207.836 430.048 207.836 441.48C207.836 452.912 217.103 462.179 228.535 462.179L306.31 462.179L143.264 625.224V654.681H172.353L335.583 491.452L335.583 569.226C335.583 580.658 344.85 589.925 356.282 589.925C367.714 589.925 376.981 580.658 376.981 569.226V441.48Z" fill="black"/>
<rect x="135.755" y="211.468" width="451.769" height="451.769" stroke="black" stroke-width="30" stroke-linecap="square" stroke-dasharray="50 50"/>
<rect x="264.562" y="132.027" width="402.438" height="402.438" stroke="black" stroke-width="30" stroke-linecap="square" stroke-dasharray="50 50"/>
<path d="M141.571 200.804L246.273 137.789M586.908 212.119L662.172 137.789M597.218 653.543L662.172 552.719" stroke="black" stroke-width="30" stroke-linecap="square" stroke-linejoin="round" stroke-dasharray="50 50"/>
</g>
<defs>
<clipPath id="clip0_4_8">
<rect width="800" height="800" fill="white"/>
</clipPath>
</defs>
</svg>
