<?xml version="1.0" standalone="no"?>
<!DOCTYPE svg PUBLIC "-//W3C//DTD SVG 20010904//EN"
 "http://www.w3.org/TR/2001/REC-SVG-20010904/DTD/svg10.dtd">
<svg version="1.0" xmlns="http://www.w3.org/2000/svg"
 width="30.000000pt" height="30.000000pt" viewBox="0 0 30.000000 30.000000"
 preserveAspectRatio="xMidYMid meet">

<g transform="translate(0.000000,30.000000) scale(0.100000,-0.100000)"
fill="#000000" stroke="none">
<path d="M90 227 l-65 -32 0 -45 c0 -43 1 -45 57 -78 l57 -34 70 37 71 37 0
44 c0 43 0 44 -60 74 -33 16 -61 30 -62 29 -2 0 -32 -14 -68 -32z m169 -34 c3
-2 -4 -10 -15 -18 -18 -13 -18 -14 4 -8 18 4 22 1 22 -20 0 -16 -8 -31 -19
-37 -28 -15 -31 -13 -31 19 0 20 -8 34 -27 46 -25 17 -26 18 -8 31 23 17 12
18 -17 3 -16 -9 -24 -8 -36 5 -14 14 -13 16 8 24 18 7 35 3 69 -16 25 -14 48
-27 50 -29z m-103 -8 c50 -32 55 -38 52 -67 -2 -24 -11 -37 -35 -51 l-32 -18
-55 35 c-44 28 -56 41 -56 61 0 14 4 25 9 25 14 0 26 -22 23 -42 -2 -9 2 -19
8 -23 6 -3 10 3 10 15 0 20 1 20 31 5 28 -15 33 -15 55 0 33 21 30 29 -4 11
-25 -13 -30 -12 -51 3 l-22 17 27 12 c14 7 24 15 21 18 -3 3 -18 -1 -35 -10
-25 -13 -32 -13 -48 -2 -17 13 -16 14 12 29 16 9 30 16 32 17 2 0 28 -16 58
-35z"/>
<path d="M153 106 c-14 -6 -23 -19 -22 -31 1 -19 2 -19 6 -1 3 12 8 15 12 8 5
-8 13 -7 29 4 41 28 22 44 -25 20z"/>
</g>
</svg>
