<svg width="800" height="800" viewBox="0 0 800 800" fill="none" xmlns="http://www.w3.org/2000/svg">
<g clip-path="url(#clip0_1_2)">
<path fill-rule="evenodd" clip-rule="evenodd" d="M613.909 212.784C655.548 259.024 671.813 314.538 676.016 350.127C683.831 416.302 662.111 477.167 648.652 514.88C647.733 517.454 646.853 519.921 646.023 522.275C632.515 560.583 601.022 575.531 583.337 578.359C526.959 591.725 441.58 612.095 367.516 630.036C292.246 648.271 230.561 663.555 220.989 666.749C189.873 677.131 167.133 662.776 158.516 648.976L157.985 648.125L157.536 647.226C150.081 632.304 133.22 599.002 124.577 583.431C117.107 569.975 116.515 553.596 117.226 541.665C117.959 529.37 120.373 517.683 122.56 510.027L167.396 305.836L168.29 303.845C180.889 275.776 207.162 234.639 245.961 199.8C284.916 164.822 337.717 135.161 402.851 133.186C504.48 130.103 571.543 165.737 613.909 212.784ZM582.474 241.091C548.875 203.779 494.012 172.741 404.133 175.466C351.744 177.056 308.091 200.864 274.224 231.275C257.29 246.479 243.107 263.076 231.85 278.77H378.611C397.015 278.77 411.598 284.15 421.715 293.82C431.461 303.135 435.375 314.892 435.375 324.427V429.137C435.375 448.291 425.563 463.146 415.997 472.936C406.4 482.757 395.127 489.552 387.095 493.069L385.584 493.73L163.63 552.074C162.223 552.444 160.811 552.663 159.412 552.741C159.713 557.771 160.599 561.167 161.562 562.902C170.342 578.72 186.561 610.712 194.399 626.366C194.712 626.607 195.293 626.995 196.193 627.332C197.702 627.899 201.233 628.748 207.602 626.623C219.399 622.688 283.845 606.782 357.557 588.925C432.094 570.868 518.046 550.363 574.455 536.991L575.485 536.747L576.535 536.607C581.37 535.962 598.583 529.611 606.13 508.208C606.876 506.091 607.644 503.928 608.428 501.718C622.071 463.287 640.617 411.047 634.008 355.088C630.542 325.74 616.801 279.211 582.474 241.091ZM166.399 507.609L371.431 453.712C375.335 451.797 381.054 448.171 385.742 443.373C391.013 437.978 393.075 433.153 393.075 429.137V325.141C392.993 324.989 392.823 324.72 392.489 324.401C391.922 323.859 388.697 321.07 378.611 321.07H213.899C211.695 321.07 209.569 320.733 207.57 320.107L166.399 507.609Z" fill="black"/>
<path fill-rule="evenodd" clip-rule="evenodd" d="M221.494 369.177C224.843 364.393 231.436 363.229 236.222 366.578L299.673 410.994C304.457 414.343 305.62 420.937 302.271 425.722C298.922 430.506 292.328 431.67 287.543 428.32L224.092 383.905C219.308 380.556 218.144 373.962 221.494 369.177Z" fill="black"/>
<path fill-rule="evenodd" clip-rule="evenodd" d="M206.926 422.783C210.456 418.13 217.09 417.22 221.743 420.75L252.411 444.015C257.064 447.545 257.975 454.179 254.445 458.832C250.915 463.485 244.281 464.395 239.628 460.865L208.96 437.6C204.307 434.07 203.396 427.436 206.926 422.783Z" fill="black"/>
</g>
<defs>
<clipPath id="clip0_1_2">
<rect width="800" height="800" fill="white"/>
</clipPath>
</defs>
</svg>
