<svg width="800" height="800" viewBox="0 0 800 800" fill="none" xmlns="http://www.w3.org/2000/svg">
<g clip-path="url(#clip0_4_2)">
<path d="M188.447 259.536C191.457 261.336 192.489 265.322 190.751 268.439L171.23 303.451C172.843 306.846 172.844 310.985 170.88 314.507C167.751 320.118 160.823 322.041 155.404 318.801C149.985 315.562 148.129 308.387 151.257 302.776C153.221 299.253 156.683 297.184 160.328 296.934L179.849 261.922C181.587 258.805 185.437 257.737 188.447 259.536Z" fill="black"/>
<path fill-rule="evenodd" clip-rule="evenodd" d="M251.33 309.721C251.33 350.376 226.367 384.993 191.447 398.033L199.652 631.682H701.606C718.495 631.682 732.185 640.964 732.185 660.761C732.185 680.558 718.495 693 701.606 693H114.491C97.603 693 83.9123 680.558 83.9123 660.761C83.9123 640.964 97.603 631.682 114.491 631.682H119.227L127.466 397.062C93.8517 383.337 70.0657 349.405 70.0657 309.721C70.0657 257.888 110.643 215.87 160.698 215.87C210.753 215.87 251.33 257.888 251.33 309.721ZM160.698 377.502C196.849 377.502 226.155 347.155 226.155 309.721C226.155 272.286 196.849 241.939 160.698 241.939C124.547 241.939 95.2414 272.286 95.2414 309.721C95.2414 347.155 124.547 377.502 160.698 377.502Z" fill="black"/>
<path d="M346.727 135H681.092C694.6 135 701.969 138.811 701.969 155.958V217.668C690.302 204.331 673.724 197.345 654.075 197.345H373.744C354.096 197.345 337.517 204.331 325.851 217.668V155.958C325.851 138.811 333.219 135 346.727 135Z" fill="black"/>
<path fill-rule="evenodd" clip-rule="evenodd" d="M373.744 225.236H654.075C665.332 226.294 688.338 233.238 690.302 252.545C692.267 271.852 693.577 313.514 693.986 331.932H721.617C724.892 331.72 731.564 333.583 732.056 342.728L732.064 342.887C732.691 354.55 734.959 396.723 698.899 399.251V544.688C699.308 549.345 697.179 558.66 685.39 558.66V580.888C685.8 584.698 684.162 592.319 674.338 592.319H639.339C635.655 592.108 628.287 589.525 628.287 580.888V561.835H399.533V580.888C399.533 589.525 392.165 592.108 388.481 592.319H353.482C343.657 592.319 342.02 584.698 342.429 580.888V558.66C330.64 558.66 328.512 549.345 328.921 544.688V399.251C292.86 396.723 295.128 354.55 295.756 342.887L295.764 342.728C296.255 333.583 302.928 331.72 306.202 331.932H333.833C334.242 313.514 335.552 271.852 337.517 252.545C339.482 233.238 362.487 226.294 373.744 225.236ZM552.149 503.407C562.322 503.407 570.569 494.876 570.569 484.354V467.841C570.569 457.319 562.322 448.789 552.149 448.789H475.671C465.498 448.789 457.25 457.319 457.25 467.841V484.354C457.25 494.876 465.498 503.407 475.671 503.407H552.149ZM652.233 382.104C662.407 382.104 670.654 373.574 670.654 363.051V280.489C670.654 269.966 662.407 261.436 652.233 261.436H375.586C365.413 261.436 357.166 269.966 357.166 280.489V363.051C357.166 373.574 365.413 382.104 375.586 382.104H652.233ZM413.041 486.259C420.309 487.512 423.07 493.457 423.48 497.056V517.379C423.48 519.919 421.638 521.824 419.181 521.824H360.85C355.447 521.824 353.686 516.743 353.482 514.203V489.434C353.482 481.813 359.622 481.813 362.078 481.813C366.6 482.203 372.453 482.653 378.607 483.126C392.503 484.193 407.934 485.379 413.041 486.259ZM614.778 486.259C607.51 487.512 604.749 493.457 604.34 497.056V517.379C604.34 519.919 606.182 521.824 608.638 521.824H666.97C672.373 521.824 674.133 516.743 674.338 514.203V489.434C674.338 481.813 668.198 481.813 665.742 481.813C661.219 482.203 655.366 482.653 649.213 483.126C635.316 484.193 619.885 485.379 614.778 486.259Z" fill="black"/>
</g>
<defs>
<clipPath id="clip0_4_2">
<rect width="800" height="800" fill="white"/>
</clipPath>
</defs>
</svg>
