<?xml version="1.0" standalone="no"?>
<!DOCTYPE svg PUBLIC "-//W3C//DTD SVG 20010904//EN"
 "http://www.w3.org/TR/2001/REC-SVG-20010904/DTD/svg10.dtd">
<svg version="1.0" xmlns="http://www.w3.org/2000/svg"
 width="30.000000pt" height="30.000000pt" viewBox="0 0 30.000000 30.000000"
 preserveAspectRatio="xMidYMid meet">

<g transform="translate(0.000000,30.000000) scale(0.100000,-0.100000)"
fill="#000000" stroke="none">
<path d="M37 254 c-18 -24 -16 -64 4 -64 5 0 9 -33 9 -74 0 -110 -5 -106 116
-106 63 0 104 4 104 10 0 6 -37 10 -90 10 l-91 0 3 68 c3 60 5 67 24 70 15 2
23 -3 27 -17 7 -28 47 -28 54 0 4 14 12 19 27 17 18 -3 22 -12 27 -68 l6 -65
-1 70 -1 70 -85 0 -85 0 -6 -75 -5 -75 -2 81 c-2 65 1 83 13 88 21 8 19 39 -4
64 -23 27 -22 27 -44 -4z m50 -20 c3 -8 -1 -22 -9 -30 -19 -19 -52 3 -42 29 8
21 43 22 51 1z m98 -73 c7 -12 -12 -24 -25 -16 -11 7 -4 25 10 25 5 0 11 -4
15 -9z"/>
<path d="M56 231 c-4 -7 -5 -15 -2 -18 9 -9 19 4 14 18 -4 11 -6 11 -12 0z"/>
<path d="M113 63 c9 -2 23 -2 30 0 6 3 -1 5 -18 5 -16 0 -22 -2 -12 -5z"/>
</g>
</svg>
